<svg xmlns="http://www.w3.org/2000/svg" viewBox="0 0 20.97 25.93"><title>Asset 3</title><g id="Layer_2" data-name="Layer 2"><g id="Capa_1" data-name="Capa 1"><g id="_Group_" data-name="&lt;Group&gt;"><path id="_Compound_Path_" data-name="&lt;Compound Path&gt;" d="M18,3.11H14a3.51,3.51,0,0,0-7,0H3a3,3,0,0,0-3,3v.15A3,3,0,0,0,1.87,9V23a3,3,0,0,0,3,3h11.3a3,3,0,0,0,3-3V9A3,3,0,0,0,21,6.22V6.07a3,3,0,0,0-3-3ZM10.48,1.4a2.11,2.11,0,0,1,2.07,1.7H8.42a2.11,2.11,0,0,1,2.07-1.7ZM17.69,23a1.56,1.56,0,0,1-1.56,1.56H4.83A1.56,1.56,0,0,1,3.28,23V9.18H17.69ZM19.56,6.22A1.56,1.56,0,0,1,18,7.78H3A1.56,1.56,0,0,1,1.4,6.22V6.07A1.56,1.56,0,0,1,3,4.51H18a1.56,1.56,0,0,1,1.56,1.56Zm0,0"/><path id="_Compound_Path_2" data-name="&lt;Compound Path&gt;" d="M6.72,22.73a.7.7,0,0,0,.7-.7V14.11a.7.7,0,1,0-1.4,0V22a.7.7,0,0,0,.7.7Zm0,0"/><path id="_Compound_Path_3" data-name="&lt;Compound Path&gt;" d="M10.48,22.73a.7.7,0,0,0,.7-.7V14.11a.7.7,0,1,0-1.4,0V22a.7.7,0,0,0,.7.7Zm0,0"/><path id="_Compound_Path_4" data-name="&lt;Compound Path&gt;" d="M14.25,22.73A.7.7,0,0,0,15,22V14.11a.7.7,0,1,0-1.4,0V22a.7.7,0,0,0,.7.7Zm0,0"/></g></g></g></svg>